<svg width="680" height="342" viewBox="0 0 680 342" xmlns="http://www.w3.org/2000/svg">
  <defs>
    <linearGradient id="redFillGrad" x1="0" y1="0" x2="0" y2="1">
      <stop offset="0" stop-color="#fc6f63" stop-opacity="0.32"/>
      <stop offset="1" stop-color="#fc6f63" stop-opacity="0.02"/>
    </linearGradient>
    <linearGradient id="greenFillGrad" x1="0" y1="0" x2="0" y2="1">
      <stop offset="0" stop-color="#1dc576" stop-opacity="0.32"/>
      <stop offset="1" stop-color="#1dc576" stop-opacity="0.02"/>
    </linearGradient>
  </defs>

  <!-- red area fill -->
  <path d="M 16,292 C 23.3,289.8 46.0,283.0 60.0,279.0 C 74.0,275.0 86.7,273.0 100.0,268.0 C 113.3,263.0 128.3,255.7 140.0,249.0 C 151.7,242.3 160.0,236.4 170.0,228.0 C 180.0,219.6 190.0,210.1 200.0,198.5 C 210.0,186.9 220.0,172.7 230.0,158.5 C 240.0,144.3 250.0,127.0 260.0,113.5 C 270.0,100.0 281.7,85.8 290.0,77.5 C 298.3,69.2 303.8,66.4 310.0,63.5 C 316.2,60.6 321.2,59.6 327.0,60.0 C 332.8,60.4 337.8,60.8 345.0,66.0 C 352.2,71.2 360.8,79.2 370.0,91.0 C 379.2,102.8 390.0,122.0 400.0,137.0 C 410.0,152.0 420.0,168.0 430.0,181.0 C 440.0,194.0 450.0,205.2 460.0,215.0 C 470.0,224.8 480.0,233.0 490.0,240.0 C 500.0,247.0 510.0,252.0 520.0,257.0 C 530.0,262.0 540.0,266.3 550.0,270.0 C 560.0,273.7 570.0,276.3 580.0,279.0 C 590.0,281.7 602.0,284.3 610.0,286.0 C 618.0,287.7 625.0,288.5 628.0,289.0 L 628,292 L 16,292 Z"
        fill="url(#redFillGrad)"/>

  <!-- green area fill -->
  <path d="M 16,292 C 23.3,290.9 46.0,287.7 60.0,285.5 C 74.0,283.3 86.7,281.9 100.0,279.0 C 113.3,276.1 128.3,271.8 140.0,268.0 C 151.7,264.2 160.0,260.3 170.0,256.0 C 180.0,251.7 190.0,247.0 200.0,242.0 C 210.0,237.0 220.0,231.2 230.0,226.0 C 240.0,220.8 250.0,214.8 260.0,210.5 C 270.0,206.2 281.7,202.4 290.0,200.0 C 298.3,197.6 304.7,197.7 310.0,196.0 C 315.3,194.3 315.3,190.0 322.0,190.0 C 328.7,190.0 340.3,193.8 350.0,196.0 C 359.7,198.2 370.0,199.7 380.0,203.0 C 390.0,206.3 400.0,210.8 410.0,216.0 C 420.0,221.2 430.0,228.2 440.0,234.0 C 450.0,239.8 460.0,246.0 470.0,251.0 C 480.0,256.0 490.0,260.0 500.0,264.0 C 510.0,268.0 520.0,272.0 530.0,275.0 C 540.0,278.0 550.0,280.0 560.0,282.0 C 570.0,284.0 578.7,285.5 590.0,287.0 C 601.3,288.5 621.7,290.3 628.0,291.0 L 628,292 L 16,292 Z"
        fill="url(#greenFillGrad)"/>

  <!-- dashed vertical guide line: red segment above green dot, green segment below -->
  <line x1="327" y1="68" x2="327" y2="195" stroke="#fc6f63" stroke-width="1.5" stroke-dasharray="4 4" opacity="0.55"/>
  <line x1="327" y1="195" x2="327" y2="292" stroke="#1dc576" stroke-width="1.5" stroke-dasharray="4 4" opacity="0.55"/>

  <!-- baseline axis -->
  <line x1="16" y1="292" x2="628" y2="292" stroke="#8fc4b4" stroke-width="1.5"/>
  <line x1="224" y1="292" x2="224" y2="299" stroke="#8fc4b4" stroke-width="2"/>
  <line x1="424" y1="292" x2="424" y2="299" stroke="#8fc4b4" stroke-width="2"/>

  <!-- red curve stroke -->
  <path d="M 16,292 C 23.3,289.8 46.0,283.0 60.0,279.0 C 74.0,275.0 86.7,273.0 100.0,268.0 C 113.3,263.0 128.3,255.7 140.0,249.0 C 151.7,242.3 160.0,236.4 170.0,228.0 C 180.0,219.6 190.0,210.1 200.0,198.5 C 210.0,186.9 220.0,172.7 230.0,158.5 C 240.0,144.3 250.0,127.0 260.0,113.5 C 270.0,100.0 281.7,85.8 290.0,77.5 C 298.3,69.2 303.8,66.4 310.0,63.5 C 316.2,60.6 321.2,59.6 327.0,60.0 C 332.8,60.4 337.8,60.8 345.0,66.0 C 352.2,71.2 360.8,79.2 370.0,91.0 C 379.2,102.8 390.0,122.0 400.0,137.0 C 410.0,152.0 420.0,168.0 430.0,181.0 C 440.0,194.0 450.0,205.2 460.0,215.0 C 470.0,224.8 480.0,233.0 490.0,240.0 C 500.0,247.0 510.0,252.0 520.0,257.0 C 530.0,262.0 540.0,266.3 550.0,270.0 C 560.0,273.7 570.0,276.3 580.0,279.0 C 590.0,281.7 602.0,284.3 610.0,286.0 C 618.0,287.7 625.0,288.5 628.0,289.0"
        fill="none" stroke="#fc6f63" stroke-width="3.5" stroke-linecap="round"/>

  <!-- green curve stroke -->
  <path d="M 16,292 C 23.3,290.9 46.0,287.7 60.0,285.5 C 74.0,283.3 86.7,281.9 100.0,279.0 C 113.3,276.1 128.3,271.8 140.0,268.0 C 151.7,264.2 160.0,260.3 170.0,256.0 C 180.0,251.7 190.0,247.0 200.0,242.0 C 210.0,237.0 220.0,231.2 230.0,226.0 C 240.0,220.8 250.0,214.8 260.0,210.5 C 270.0,206.2 281.7,202.4 290.0,200.0 C 298.3,197.6 304.7,197.7 310.0,196.0 C 315.3,194.3 315.3,190.0 322.0,190.0 C 328.7,190.0 340.3,193.8 350.0,196.0 C 359.7,198.2 370.0,199.7 380.0,203.0 C 390.0,206.3 400.0,210.8 410.0,216.0 C 420.0,221.2 430.0,228.2 440.0,234.0 C 450.0,239.8 460.0,246.0 470.0,251.0 C 480.0,256.0 490.0,260.0 500.0,264.0 C 510.0,268.0 520.0,272.0 530.0,275.0 C 540.0,278.0 550.0,280.0 560.0,282.0 C 570.0,284.0 578.7,285.5 590.0,287.0 C 601.3,288.5 621.7,290.3 628.0,291.0"
        fill="none" stroke="#1dc576" stroke-width="3.5" stroke-linecap="round"/>

  <!-- red peak dot -->
  <circle cx="327" cy="61" r="10" fill="#ffffff"/>
  <circle cx="327" cy="61" r="7" fill="#fc6f63"/>

  <!-- green peak dot -->
  <circle cx="327" cy="195" r="10" fill="#ffffff"/>
  <circle cx="327" cy="195" r="7.5" fill="#1dc576"/>

  <!-- red connector: dot up then right into pill -->
  <path d="M 327,50 L 327,25 C 327,20 331,17 337,17 L 372,17" fill="none" stroke="#fc6f63" stroke-width="2.5" stroke-linecap="round"/>

  <!-- red pill -->
  <rect x="372" y="16" width="150" height="34" rx="17" fill="#fc6f63"/>
  <text x="447" y="39" text-anchor="middle" font-family="system-ui, sans-serif" font-size="17" font-weight="700" fill="#ffffff">Peak usage</text>

  <!-- green connector arrow -->
  <path d="M 458,146 L 417,208" fill="none" stroke="#1dc576" stroke-width="2.5" stroke-linecap="round"/>
  <path d="M 407,199 L 415,210 L 428,206" fill="none" stroke="#1dc576" stroke-width="2.5" stroke-linecap="round" stroke-linejoin="round"/>

  <!-- green pill -->
  <rect x="443" y="123" width="234" height="34" rx="17" fill="#1dc576"/>
  <text x="560" y="146" text-anchor="middle" font-family="system-ui, sans-serif" font-size="17" font-weight="700" fill="#ffffff">After optimization</text>

  <!-- axis labels -->
  <text x="16" y="327" font-family="system-ui, sans-serif" font-size="19" font-weight="700" fill="#7fa397">6h</text>
  <text x="207" y="327" font-family="system-ui, sans-serif" font-size="19" font-weight="700" fill="#7fa397">12h</text>
  <text x="407" y="327" font-family="system-ui, sans-serif" font-size="19" font-weight="700" fill="#7fa397">18h</text>
  <text x="605" y="327" font-family="system-ui, sans-serif" font-size="19" font-weight="700" fill="#7fa397">24h</text>
</svg>
